<svg width="32" height="32" viewBox="0 0 32 32" fill="none" xmlns="http://www.w3.org/2000/svg">
<path d="M8.2373 21.6157C8.2373 22.8345 9.10449 24.3767 10.6936 24.3767C12.4561 24.3767 13.1498 22.8345 13.1498 21.6157" stroke="#7A8C9E" stroke-width="2" stroke-linecap="round" stroke-linejoin="round"/>
<path d="M23.9547 29.1719V9.83125C23.9547 8.6125 22.9984 7.07031 21.4984 7.07031C19.9234 7.07031 19.0422 8.6125 19.0422 9.83125V12.0156M2.34062 2.65469V22.1687C2.34062 27.0391 5.37344 31 10.6938 31C16.0141 31 19.0422 27.0391 19.0422 22.1687V19.75M8.2375 2.65469V21.6156C8.2375 22.8344 9.10469 24.3766 10.6938 24.3766C12.1328 24.3766 13.15 22.8344 13.15 21.6156V19.75M29.8469 29.1719V9.83125C29.8469 4.96094 26.65 1 21.4984 1C16.6328 1 13.15 4.96094 13.15 9.83125V12.0156M9.26406 2.575H1M22.7359 29.3594H31M12.0578 12.1469H20.1531V19.6328H12.0578V12.1469Z" stroke="#7A8C9E" stroke-width="2" stroke-linecap="round" stroke-linejoin="round"/>
<path d="M5.92188 6.67676V12.0158" stroke="#7A8C9E" stroke-width="2" stroke-linecap="round" stroke-linejoin="round"/>
<circle cx="5.92188" cy="14.7437" r="0.46875" fill="#7A8C9E"/>
</svg>
