<svg width="32" height="32" viewBox="0 0 32 32" fill="none" xmlns="http://www.w3.org/2000/svg">
<path d="M16 31C24.2843 31 31 24.2843 31 16C31 7.71572 24.2843 1 16 1C7.71572 1 1 7.71572 1 16C1 24.2843 7.71572 31 16 31Z" stroke="#7A8C9E" stroke-width="2" stroke-linecap="round" stroke-linejoin="round"/>
<path d="M16.0169 18.3076C17.296 18.3076 18.333 17.2707 18.333 15.9915C18.333 14.7123 17.296 13.6753 16.0169 13.6753C14.7377 13.6753 13.7007 14.7123 13.7007 15.9915C13.7007 17.2707 14.7377 18.3076 16.0169 18.3076Z" stroke="#7A8C9E" stroke-width="2" stroke-linecap="round" stroke-linejoin="round"/>
<path d="M21.4723 10.5615L17.6035 14.32" stroke="#7A8C9E" stroke-width="2" stroke-linecap="round" stroke-linejoin="round"/>
<path d="M1 16H7.45645" stroke="#7A8C9E" stroke-width="2" stroke-linecap="round" stroke-linejoin="round"/>
<path d="M24.5435 16H30.9999" stroke="#7A8C9E" stroke-width="2" stroke-linecap="round" stroke-linejoin="round"/>
<path d="M16 1V7.45644" stroke="#7A8C9E" stroke-width="2" stroke-linecap="round" stroke-linejoin="round"/>
<path d="M16 24.5435V30.9999" stroke="#7A8C9E" stroke-width="2" stroke-linecap="round" stroke-linejoin="round"/>
<path d="M5.39502 5.39502L7.49061 7.49061" stroke="#7A8C9E" stroke-width="2" stroke-linecap="round" stroke-linejoin="round"/>
<path d="M24.5098 24.5098L26.6054 26.6054" stroke="#7A8C9E" stroke-width="2" stroke-linecap="round" stroke-linejoin="round"/>
<path d="M26.6054 5.39502L24.5098 7.49061" stroke="#7A8C9E" stroke-width="2" stroke-linecap="round" stroke-linejoin="round"/>
<path d="M7.49061 24.5098L5.39502 26.6054" stroke="#7A8C9E" stroke-width="2" stroke-linecap="round" stroke-linejoin="round"/>
</svg>
