<svg width="40" height="41" viewBox="0 0 40 41" fill="none" xmlns="http://www.w3.org/2000/svg">
<path d="M1 8.58984H16.2V17.2398C16.2 19.9698 13.98 22.1898 11.25 22.1898H5.95C3.22 22.1898 1 19.9698 1 17.2398V8.58984Z" stroke="#7A8C9E" stroke-width="2" stroke-linecap="round" stroke-linejoin="round"/>
<path d="M4.5498 1V8.59" stroke="#647E94" stroke-width="2" stroke-linecap="round" stroke-linejoin="round"/>
<path d="M12.3198 1V8.59" stroke="#7A8C9E" stroke-width="2" stroke-linecap="round" stroke-linejoin="round"/>
<path d="M8.6001 22.1898V31.9498C8.6001 36.0398 11.9201 39.3598 16.0101 39.3598C20.1001 39.3598 23.4201 36.0398 23.4201 31.9498V12.4198C23.4201 8.32977 26.7401 5.00977 30.8301 5.00977H31.1801C35.2701 5.00977 38.5901 8.32977 38.5901 12.4198V30.9598" stroke="#7A8C9E" stroke-width="2" stroke-linecap="round" stroke-linejoin="round"/>
<path d="M5.41992 12.9697H11.7899" stroke="#7A8C9E" stroke-width="2" stroke-linecap="round" stroke-linejoin="round"/>
<path d="M5.41992 16.9902H11.7899" stroke="#7A8C9E" stroke-width="2" stroke-linecap="round" stroke-linejoin="round"/>
</svg>
