<svg width="52" height="63" viewBox="0 0 52 63" fill="none" xmlns="http://www.w3.org/2000/svg">
<path d="M33.1654 43.243C33.2641 43.243 33.3036 43.2602 33.3332 43.2516C33.6196 43.1655 33.8862 43.088 34.1528 42.9933C38.5169 41.4696 42.1011 39.085 44.6386 35.607C47.5217 31.6556 48.2129 27.4718 46.1394 23.0555C46.0604 22.9006 45.9715 22.737 45.8333 22.496C45.7444 22.7628 45.6654 22.9264 45.6161 23.0986C45.31 24.1574 44.9545 25.1905 44.372 26.1633C43.2563 28.0314 41.6469 29.469 39.445 30.3557C39.0007 30.5365 38.6354 30.5021 38.2602 30.2266C37.8751 29.9511 37.6777 29.6154 37.7961 29.1849C37.8949 28.832 38.0134 28.479 38.1615 28.1433C38.7638 26.8778 39.2574 25.5779 39.3364 24.1919C39.445 22.2377 39.4352 20.2921 38.8329 18.3724C37.7073 14.7739 35.6338 11.6232 32.8593 8.8081C29.9959 5.90697 26.6586 3.53096 22.6104 1.96418C21.6626 1.60261 20.6851 1.32713 19.7175 1C19.6977 1.02583 19.6582 1.06026 19.6385 1.08609C19.7273 1.20661 19.8063 1.31852 19.9248 1.43044C20.1914 1.69731 20.4876 1.93835 20.7345 2.21383C21.9193 3.51374 22.8079 4.96001 23.5386 6.47514C23.9434 7.32741 24.2692 8.20549 24.2791 9.13524C24.2988 10.3405 24.2791 11.5543 24.2791 12.7595C24.2791 13.035 24.2297 13.3191 24.1705 13.5859C23.5287 16.1513 21.9983 18.2949 20.0137 20.2319C19.8458 20.3954 19.6187 20.5246 19.3916 20.6279C18.9967 20.8173 18.6215 20.6881 18.3055 20.4643C17.9994 20.2491 17.7427 19.9908 17.8415 19.6206C18.3154 17.9333 18.187 16.2374 17.7329 14.5759C17.5058 13.7495 17.1306 12.9403 16.8047 12.088C16.706 12.1741 16.6764 12.1999 16.6764 12.2085C16.6665 12.2688 16.6566 12.3377 16.6468 12.3979C16.4197 13.2072 16.2814 14.0422 15.9556 14.817C15.3336 16.2891 14.2376 17.5201 13.1219 18.7253C11.7001 20.2491 10.2091 21.7298 8.81694 23.2621C7.62223 24.5621 6.60524 25.9825 6.2103 27.6268C5.97333 28.5909 5.96345 29.5895 5.88446 30.5882C5.74623 32.241 6.15105 33.7906 7.01994 35.2627C8.86631 38.3963 11.7889 40.5484 15.3632 42.0894C15.4619 42.1324 15.5804 42.141 15.689 42.1669V42.0894C15.6594 41.9603 15.6199 41.8397 15.5903 41.7192C15.0176 39.3518 15.4027 37.1996 17.3972 35.3918C18.0784 34.7806 19.0954 34.6084 19.9939 34.9269C20.0729 34.9528 20.1618 34.97 20.3099 35.0044C20.2605 34.7978 20.2408 34.6429 20.2013 34.4965C19.8162 32.99 19.5792 31.4662 19.7175 29.9167C19.9544 27.2394 20.9319 24.8031 22.6302 22.5562C23.351 21.592 24.2692 21.1616 25.5627 21.3252H25.5923C25.8194 21.4113 26.086 21.4629 26.2736 21.6007C26.9154 22.0827 27.0536 22.7198 26.9055 23.4085C26.4513 25.4401 26.9647 27.3082 28.1989 29.0472C28.7815 29.8736 29.3838 30.6915 30.0256 31.4835C31.1907 32.9383 32.4051 34.3588 33.5406 35.8309C34.5181 37.0963 35.0315 38.5082 34.5773 40.0233C34.3305 40.8497 33.896 41.6417 33.5505 42.451C33.4419 42.7178 33.3036 42.9761 33.1555 43.243V43.2171L33.1654 43.243Z" fill="#7A8C9E"/>
<path d="M0 58.0587C0.375199 56.7329 1.43168 55.9753 2.84361 55.5793C4.25555 55.192 5.6971 54.8906 7.12878 54.5807C7.70146 54.4516 8.27413 54.7701 8.43211 55.2178C8.60983 55.7257 8.41236 56.1647 7.79032 56.3455C6.62523 56.6899 5.45026 56.9653 4.28517 57.2753C3.73224 57.4216 3.19907 57.6024 2.66589 57.766C2.3993 57.8434 2.27094 58.0156 2.34993 58.2653C2.59677 59.1003 2.84361 59.9354 3.12008 60.7618C3.20894 61.0373 3.45578 61.1492 3.78161 61.0803C4.9862 60.822 6.18091 60.5896 7.37562 60.3227C11.256 59.436 15.1264 58.5321 19.0068 57.6454C19.2536 57.5852 19.5104 57.5507 19.7572 57.5077C20.241 57.4388 20.7643 57.6971 20.9223 58.0587C21.1296 58.5666 20.9815 59.0228 20.4286 59.2208C19.7769 59.4533 19.0957 59.6599 18.4243 59.8234C14.5933 60.7274 10.7524 61.6227 6.90169 62.5007C6.0723 62.6901 5.20342 62.8193 4.35428 62.957C3.5249 63.0861 2.71526 62.914 1.97473 62.5868C1.47118 62.363 1.1256 61.9842 0.967619 61.528C0.641788 60.5466 0.355452 59.5566 0.0691156 58.558C0.0493683 58.4977 0.0197473 58.4374 0 58.3772V58.05L0 58.0587Z" fill="#7A8C9E"/>
<path d="M5.35147 45.2832C6.17099 45.4468 7.00037 45.6017 7.80014 45.7911C17.111 47.9605 26.4219 50.1385 35.7229 52.3165C40.1857 53.3668 44.6388 54.4429 49.1017 55.5018C50.0594 55.7256 50.8197 56.2077 51.4318 56.8791C51.9157 57.4129 52.1329 57.9897 51.9157 58.6784C51.6787 59.4531 51.4318 60.2193 51.2541 61.0113C50.9974 62.1046 50.1384 62.5781 49.0128 62.8278C48.213 63.0172 47.433 62.9052 46.653 62.7331C42.0124 61.6828 37.3718 60.6412 32.741 59.5478C24.0028 57.4904 15.2844 55.4071 6.54619 53.341C5.60819 53.1171 4.68994 52.8761 3.76181 52.6264C2.63622 52.3079 1.89569 51.6106 1.35264 50.7239C1.12555 50.3537 1.21441 49.9491 1.33289 49.5617C1.56986 48.7697 1.83645 47.9777 2.06355 47.1857C2.36963 46.1183 3.24838 45.6448 4.39373 45.4554C4.69981 45.4037 5.0059 45.3951 5.30211 45.3693C5.30211 45.3521 5.31198 45.3262 5.32185 45.309H5.3416L5.35147 45.2832ZM48.3809 61.0544C48.7166 61.0716 48.8746 60.9338 48.9536 60.6842C49.1708 60.0127 49.4077 59.3585 49.6052 58.6784C49.8521 57.8433 49.7632 57.7142 48.7956 57.4818C46.3272 56.8964 43.8686 56.2938 41.4002 55.717C33.6593 53.9005 25.9084 52.0669 18.1675 50.259C13.9811 49.2863 9.79462 48.3393 5.59832 47.3923C5.31198 47.3321 5.02564 47.3063 4.72943 47.2804C4.50234 47.2632 4.38386 47.3665 4.32461 47.5645C4.10739 48.279 3.87042 48.9763 3.67295 49.6995C3.48535 50.3796 3.61371 50.5603 4.38386 50.7411C8.09635 51.6278 11.7891 52.5059 15.5016 53.3754C25.7505 55.7772 36.0092 58.1705 46.2482 60.5723C46.9591 60.7359 47.67 60.8908 48.3809 61.0458V61.063V61.0544Z" fill="#7A8C9E"/>
<path d="M50.7606 49.9752C50.7013 50.9308 50.3162 51.5075 49.7139 51.9466C49.3388 52.2221 48.9043 52.4976 48.4403 52.6267C47.2554 52.971 46.0607 53.2637 44.8561 53.5306C44.2538 53.6597 43.7996 53.3756 43.612 52.8591C43.454 52.4287 43.6811 51.9466 44.2341 51.7658C45.0536 51.4989 45.9126 51.3095 46.7519 51.0685C47.2455 50.9222 47.7293 50.75 48.2132 50.5778C48.4797 50.4831 48.5785 50.3109 48.4699 50.0355C48.1737 49.2435 47.9169 48.4428 47.6602 47.6508C47.5714 47.3754 47.3936 47.2635 47.0579 47.3323C45.488 47.6767 43.928 48.0038 42.3581 48.3482C39.2281 49.0455 36.0784 49.7514 32.9485 50.4573C32.8399 50.4831 32.7115 50.5003 32.5831 50.5262C32.1783 50.6122 31.8328 50.5778 31.5662 50.2593C31.3094 49.9322 31.2008 49.562 31.4181 49.209C31.5168 49.0541 31.7241 48.8819 31.9216 48.8388C33.8569 48.3309 35.802 47.7972 37.7569 47.3409C40.5314 46.6953 43.3158 46.0754 46.1101 45.4728C47.8281 45.1113 49.5165 45.9808 50.0003 47.4615C50.2965 48.3654 50.5335 49.2779 50.7309 49.9666H50.7408L50.7606 49.9752Z" fill="#7A8C9E"/>
<path d="M33.2049 43.2688C33.3431 42.9848 33.4715 42.7265 33.5999 42.4768C33.9454 41.6676 34.3799 40.8842 34.6267 40.0492C35.0809 38.5254 34.5675 37.1222 33.59 35.8567C32.4545 34.3847 31.2302 32.9642 30.075 31.5093C29.443 30.7173 28.8309 29.8995 28.2483 29.0731C27.024 27.3341 26.5106 25.466 26.9549 23.4344C27.103 22.7457 26.9648 22.1086 26.323 21.6265C26.1452 21.4888 25.8688 21.4371 25.6417 21.3511H25.6121C24.3186 21.1875 23.4004 21.6179 22.6796 22.5821C21.0011 24.829 20.0038 27.2739 19.7669 29.9426C19.6286 31.4921 19.8656 33.0073 20.2507 34.5224C20.2803 34.6773 20.3198 34.8237 20.3593 35.0303C20.2112 35.0045 20.1223 34.9787 20.0433 34.9528C19.1448 34.6257 18.118 34.8151 17.4465 35.4177C15.4422 37.2255 15.067 39.3863 15.6397 41.7451C15.6693 41.8742 15.7088 41.9948 15.7384 42.1153V42.1928C15.6298 42.1669 15.5113 42.1497 15.4126 42.1153C11.8383 40.5829 8.91571 38.4307 7.06933 35.2886C6.20045 33.8251 5.8055 32.2583 5.93386 30.614C6.01285 29.624 6.02272 28.6168 6.25969 27.6526C6.66451 25.9998 7.67162 24.5879 8.86634 23.288C10.2783 21.7557 11.7494 20.275 13.1713 18.7512C14.2969 17.5546 15.383 16.315 16.005 14.8429C16.3308 14.0681 16.4691 13.233 16.6962 12.4238C16.7159 12.3636 16.7159 12.2947 16.7258 12.2344C16.7258 12.2172 16.7554 12.2086 16.8541 12.1139C17.18 12.9748 17.5552 13.7754 17.7823 14.6018C18.2463 16.2719 18.3648 17.9506 17.8909 19.6465C17.7921 20.0339 18.0488 20.275 18.3549 20.4902C18.6709 20.714 19.0461 20.8431 19.441 20.6537C19.6681 20.5591 19.8952 20.4299 20.0631 20.2577C22.0378 18.3294 23.5682 16.1772 24.2199 13.6118C24.289 13.3449 24.3186 13.0609 24.3285 12.7854C24.3384 11.5802 24.3482 10.3663 24.3285 9.16111C24.3087 8.23137 23.9928 7.35328 23.588 6.50102C22.8672 4.97728 21.9687 3.53101 20.7838 2.23971C20.537 1.96423 20.2309 1.71458 19.9742 1.45631C19.8755 1.3444 19.7965 1.23249 19.6879 1.11197C19.7076 1.08614 19.7471 1.05171 19.7669 1.02588C20.7345 1.3444 21.712 1.62849 22.6598 1.99005C26.6982 3.55684 30.0453 5.92424 32.9087 8.83398C35.6832 11.6404 37.7567 14.7998 38.8823 18.3983C39.4846 20.318 39.4944 22.2636 39.3858 24.2178C39.3068 25.6038 38.8132 26.8951 38.2109 28.1692C38.0529 28.5049 37.9443 28.8579 37.8455 29.2108C37.7172 29.6412 37.9245 29.9684 38.3096 30.2525C38.6848 30.5279 39.06 30.5538 39.4944 30.3816C41.6963 29.4863 43.3057 28.0486 44.4214 26.1892C45.0039 25.2164 45.3693 24.1747 45.6655 23.1245C45.7148 22.9609 45.7938 22.7887 45.8827 22.5218C46.0209 22.7715 46.1098 22.9264 46.1888 23.0814C48.2622 27.5063 47.5612 31.6815 44.688 35.6329C42.1504 39.1108 38.5663 41.4868 34.2022 43.0192C33.9356 43.1139 33.6492 43.2 33.3826 43.2775C33.353 43.2775 33.3135 43.2775 33.2148 43.2688L33.2469 43.1827L33.2049 43.2688Z" stroke="#7A8C9E" stroke-miterlimit="10"/>
</svg>
