<svg width="50" height="45" viewBox="0 0 50 45" fill="none" xmlns="http://www.w3.org/2000/svg">
<path d="M18.7101 26.11H6.56006L8.47006 20.25H19.3501L18.7101 26.11Z" stroke="#7A8C9E" stroke-width="2" stroke-linecap="round" stroke-linejoin="round"/>
<path d="M30.86 26.11H18.71L19.35 20.25H30.23L30.86 26.11Z" stroke="#7A8C9E" stroke-width="2" stroke-linecap="round" stroke-linejoin="round"/>
<path d="M43.0398 26.11H30.8898L30.2598 20.25H41.1298L43.0398 26.11Z" stroke="#7A8C9E" stroke-width="2" stroke-linecap="round" stroke-linejoin="round"/>
<path d="M17.9099 33.5299H4.1499L6.5599 26.1099H18.7099L17.9099 33.5299Z" stroke="#7A8C9E" stroke-width="2" stroke-linecap="round" stroke-linejoin="round"/>
<path d="M31.6602 33.5299H17.9102L18.7102 26.1099H30.8602L31.6602 33.5299Z" stroke="#7A8C9E" stroke-width="2" stroke-linecap="round" stroke-linejoin="round"/>
<path d="M45.4601 33.5299H31.7001L30.8901 26.1099H43.0401L45.4601 33.5299Z" stroke="#7A8C9E" stroke-width="2" stroke-linecap="round" stroke-linejoin="round"/>
<path d="M16.86 43.2098H1L4.15 33.5298H17.91L16.86 43.2098Z" stroke="#7A8C9E" stroke-width="2" stroke-linecap="round" stroke-linejoin="round"/>
<path d="M32.7099 43.2098H16.8599L17.9099 33.5298H31.6599L32.7099 43.2098Z" stroke="#7A8C9E" stroke-width="2" stroke-linecap="round" stroke-linejoin="round"/>
<path d="M48.6102 43.2098H32.7502L31.7002 33.5298H45.4602L48.6102 43.2098Z" stroke="#7A8C9E" stroke-width="2" stroke-linecap="round" stroke-linejoin="round"/>
<path d="M24.6001 6.72V1" stroke="#7A8C9E" stroke-width="2" stroke-linecap="round" stroke-linejoin="round"/>
<path d="M31.8501 13.9702H37.5801" stroke="#7A8C9E" stroke-width="2" stroke-linecap="round" stroke-linejoin="round"/>
<path d="M11.6299 13.9702H17.3599" stroke="#7A8C9E" stroke-width="2" stroke-linecap="round" stroke-linejoin="round"/>
<path d="M29.7295 8.8498L33.7795 4.7998" stroke="#7A8C9E" stroke-width="2" stroke-linecap="round" stroke-linejoin="round"/>
<path d="M15.4297 4.7998L19.4797 8.8498" stroke="#7A8C9E" stroke-width="2" stroke-linecap="round" stroke-linejoin="round"/>
<path d="M24.6001 6.72021C20.6001 6.72021 17.3501 9.96022 17.3501 13.9702H31.8401C31.8401 9.97022 28.6001 6.72021 24.5901 6.72021H24.6001Z" stroke="#7A8C9E" stroke-width="2" stroke-linecap="round" stroke-linejoin="round"/>
</svg>
