<svg width="36" height="36" viewBox="0 0 36 36" fill="none" xmlns="http://www.w3.org/2000/svg">
<path d="M18.1379 22.8184C20.67 22.8184 22.7226 20.7372 22.7226 18.1699C22.7226 15.6027 20.67 13.5215 18.1379 13.5215C15.6059 13.5215 13.5532 15.6027 13.5532 18.1699C13.5532 20.7372 15.6059 22.8184 18.1379 22.8184Z" stroke="#7A8C9E" stroke-width="2" stroke-linecap="round" stroke-linejoin="round"/>
<path d="M27.228 3.26855C28.9068 3.26855 32.3971 3.82637 35.0002 7.95949" stroke="#7A8C9E" stroke-width="2" stroke-linecap="round" stroke-linejoin="round"/>
<path d="M18.7861 12.9211C23.2114 6.09983 30.5161 4.25108 33.0661 14.483C33.9055 22.0161 27.9449 16.183 23.5993 16.7886" stroke="#7A8C9E" stroke-width="2" stroke-linecap="round" stroke-linejoin="round"/>
<path d="M9.54781 33.6509C5.26063 33.6509 2.60437 30.8777 1 27.9824" stroke="#7A8C9E" stroke-width="2" stroke-linecap="round" stroke-linejoin="round"/>
<path d="M18.5206 23.5355C13.7712 30.8561 5.92999 32.843 3.19405 21.8567C2.29624 13.7711 10.6581 21.4742 13.3569 19.3864" stroke="#7A8C9E" stroke-width="2" stroke-linecap="round" stroke-linejoin="round"/>
<path d="M32.7261 28.2905C32.4339 30.0543 31.3714 32.854 27.7695 35.0002" stroke="#7A8C9E" stroke-width="2" stroke-linecap="round" stroke-linejoin="round"/>
<path d="M23.307 18.3135C30.0326 22.8025 31.8601 30.2082 21.7664 32.7954C14.3342 33.6454 21.4157 25.7457 19.4926 23.1957" stroke="#7A8C9E" stroke-width="2" stroke-linecap="round" stroke-linejoin="round"/>
<path d="M3.5498 7.95406C3.85262 6.12656 4.94699 3.24187 8.63387 1" stroke="#7A8C9E" stroke-width="2" stroke-linecap="round" stroke-linejoin="round"/>
<path d="M13.3567 18.5687C6.13706 13.7556 4.17674 5.80274 15.0142 3.0243C22.9883 2.11586 15.3914 10.5946 17.4527 13.3252" stroke="#7A8C9E" stroke-width="2" stroke-linecap="round" stroke-linejoin="round"/>
</svg>
