<svg width="58" height="58" viewBox="0 0 58 58" fill="none" xmlns="http://www.w3.org/2000/svg">
<path d="M29.2275 36.936C33.398 36.936 36.7788 33.5082 36.7788 29.2798C36.7788 25.0514 33.398 21.6235 29.2275 21.6235C25.0571 21.6235 21.6763 25.0514 21.6763 29.2798C21.6763 33.5082 25.0571 36.936 29.2275 36.936Z" stroke="#7A8C9E" stroke-width="2" stroke-linecap="round" stroke-linejoin="round"/>
<path d="M44.1987 4.73633C46.9637 4.73633 52.7125 5.65508 57 12.4626" stroke="#7A8C9E" stroke-width="2" stroke-linecap="round" stroke-linejoin="round"/>
<path d="M30.2949 20.635C37.5837 9.4 49.6149 6.355 53.8149 23.2075C55.1974 35.615 45.3799 26.0075 38.2224 27.005" stroke="#7A8C9E" stroke-width="2" stroke-linecap="round" stroke-linejoin="round"/>
<path d="M15.0788 54.7777C8.0175 54.7777 3.6425 50.2102 1 45.4414" stroke="#7A8C9E" stroke-width="2" stroke-linecap="round" stroke-linejoin="round"/>
<path d="M29.8577 38.1173C22.0352 50.1748 9.12018 53.4473 4.61393 35.3523C3.13518 22.0348 16.9077 34.7223 21.3527 31.2835" stroke="#7A8C9E" stroke-width="2" stroke-linecap="round" stroke-linejoin="round"/>
<path d="M53.2551 45.9487C52.7738 48.8537 51.0238 53.465 45.0913 57" stroke="#7A8C9E" stroke-width="2" stroke-linecap="round" stroke-linejoin="round"/>
<path d="M37.7415 29.5161C48.819 36.9099 51.829 49.1074 35.204 53.3686C22.9627 54.7686 34.6265 41.7574 31.459 37.5574" stroke="#7A8C9E" stroke-width="2" stroke-linecap="round" stroke-linejoin="round"/>
<path d="M5.2002 12.4538C5.69895 9.44375 7.50144 4.6925 13.5739 1" stroke="#7A8C9E" stroke-width="2" stroke-linecap="round" stroke-linejoin="round"/>
<path d="M21.3527 29.9363C9.46147 22.0088 6.23272 8.91002 24.0827 4.33377C37.2165 2.83752 24.704 16.8025 28.099 21.3" stroke="#7A8C9E" stroke-width="2" stroke-linecap="round" stroke-linejoin="round"/>
</svg>
