<svg width="44" height="24" viewBox="0 0 44 24" fill="none" xmlns="http://www.w3.org/2000/svg">
<path d="M31.4562 1H8.66246C8.1116 1 7.66504 1.44656 7.66504 1.99742V21.9535C7.66504 22.5044 8.1116 22.951 8.66246 22.951H31.4562C32.0071 22.951 32.4536 22.5044 32.4536 21.9535V1.99742C32.4536 1.44656 32.0071 1 31.4562 1Z" stroke="#7A8C9E" stroke-width="2" stroke-linecap="round" stroke-linejoin="round"/>
<path d="M7.66504 11.9795H32.4536" stroke="#7A8C9E" stroke-width="2" stroke-linecap="round" stroke-linejoin="round"/>
<path d="M12.6211 22.951V1" stroke="#7A8C9E" stroke-width="2" stroke-linecap="round" stroke-linejoin="round"/>
<path d="M17.585 22.951V1" stroke="#7A8C9E" stroke-width="2" stroke-linecap="round" stroke-linejoin="round"/>
<path d="M22.541 22.951V1" stroke="#7A8C9E" stroke-width="2" stroke-linecap="round" stroke-linejoin="round"/>
<path d="M27.4976 22.951V1" stroke="#7A8C9E" stroke-width="2" stroke-linecap="round" stroke-linejoin="round"/>
<path d="M1 7.32471H17.585" stroke="#7A8C9E" stroke-width="2" stroke-linecap="round" stroke-linejoin="round"/>
<path d="M32.4536 7.32473H38.3531L35.8325 4.79639" stroke="#7A8C9E" stroke-width="2" stroke-linecap="round" stroke-linejoin="round"/>
<path d="M38.3532 7.32471L36.2578 9.42006" stroke="#7A8C9E" stroke-width="2" stroke-linecap="round" stroke-linejoin="round"/>
<path d="M1 17.0283H22.5412" stroke="#7A8C9E" stroke-width="2" stroke-linecap="round" stroke-linejoin="round"/>
<path d="M32.4536 17.0283H43L40.4794 14.5" stroke="#7A8C9E" stroke-width="2" stroke-linecap="round" stroke-linejoin="round"/>
<path d="M42.9997 17.0283L40.9043 19.1237" stroke="#7A8C9E" stroke-width="2" stroke-linecap="round" stroke-linejoin="round"/>
</svg>
