<svg width="58" height="65" viewBox="0 0 58 65" fill="none" xmlns="http://www.w3.org/2000/svg">
<path d="M51.9077 28.3096H57.0002" stroke="#7A8C9E" stroke-width="2" stroke-linecap="round" stroke-linejoin="round"/>
<path d="M1 28.3096H6.0925" stroke="#7A8C9E" stroke-width="2" stroke-linecap="round" stroke-linejoin="round"/>
<path d="M43.7087 27.6156C43.7087 19.0562 36.1137 12.2312 27.1449 13.2062C20.1449 13.9656 14.5624 19.6093 14.0199 26.4625C13.5999 31.7125 18.2374 37.1594 20.0049 40.2156C20.7224 41.4531 21.5537 43.5906 21.7724 44.6687L21.9124 45.3625C22.3149 47.35 24.0999 48.7937 26.1824 48.7937H31.5199C33.6024 48.7937 35.3874 47.3593 35.7899 45.3625L35.9299 44.6781C36.1487 43.6 36.9799 41.4437 37.7062 40.2156C39.3774 37.3937 43.7262 32.3968 43.7262 27.625L43.7087 27.6156Z" stroke="#7A8C9E" stroke-width="2" stroke-linecap="round" stroke-linejoin="round"/>
<path d="M33.6814 53.0127H23.9951" stroke="#7A8C9E" stroke-width="2" stroke-linecap="round" stroke-linejoin="round"/>
<path d="M33.6814 56.9595H23.9951" stroke="#7A8C9E" stroke-width="2" stroke-linecap="round" stroke-linejoin="round"/>
<path d="M26.5063 61H31.1701" stroke="#7A8C9E" stroke-width="2" stroke-linecap="round" stroke-linejoin="round"/>
<path d="M37.4961 24.3905C35.9299 20.8187 32.1061 18.4093 27.7661 18.878" stroke="#7A8C9E" stroke-width="2" stroke-linecap="round" stroke-linejoin="round"/>
<path d="M38.2485 28.9002C38.2485 28.7033 38.2485 28.5064 38.231 28.3096" stroke="#7A8C9E" stroke-width="2" stroke-linecap="round" stroke-linejoin="round"/>
<path d="M29 5.95937V1" stroke="#7A8C9E" stroke-width="2" stroke-linecap="round" stroke-linejoin="round"/>
<path d="M45.2051 44.1157L48.8013 47.622" stroke="#7A8C9E" stroke-width="2" stroke-linecap="round" stroke-linejoin="round"/>
<path d="M9.19873 8.99707L12.795 12.5127" stroke="#7A8C9E" stroke-width="2" stroke-linecap="round" stroke-linejoin="round"/>
<path d="M45.2051 12.5127L48.8013 8.99707" stroke="#7A8C9E" stroke-width="2" stroke-linecap="round" stroke-linejoin="round"/>
<path d="M9.19873 47.622L12.795 44.1157" stroke="#7A8C9E" stroke-width="2" stroke-linecap="round" stroke-linejoin="round"/>
</svg>
