<svg width="32" height="33" viewBox="0 0 32 33" fill="none" xmlns="http://www.w3.org/2000/svg">
<path d="M11.9673 18.4692C11.9673 16.245 16.0056 9.38818 16.0056 9.38818C16.0056 9.38818 20.0438 16.245 20.0438 18.4692C20.0438 20.6933 18.2399 22.5074 16.0056 22.5074C13.7712 22.5074 11.9673 20.7035 11.9673 18.4692Z" stroke="#7A8C9E" stroke-width="2" stroke-linecap="round" stroke-linejoin="round"/>
<path d="M1.70703 10.6281C3.16245 6.98957 6.00154 3.90449 9.88607 2.24409C17.6551 -1.08698 26.6541 2.50032 29.9852 10.2694L30.9999 5.18567" stroke="#7A8C9E" stroke-width="2" stroke-linecap="round" stroke-linejoin="round"/>
<path d="M29.9751 10.2695L25.5166 9.1626" stroke="#7A8C9E" stroke-width="2" stroke-linecap="round" stroke-linejoin="round"/>
<path d="M30.2929 21.9023C28.8374 25.5409 25.9983 28.626 22.1138 30.2864C14.3447 33.6174 5.34576 30.0301 2.01469 22.2611L1 27.3448" stroke="#7A8C9E" stroke-width="2" stroke-linecap="round" stroke-linejoin="round"/>
<path d="M2.0249 22.2715L6.49365 23.3682" stroke="#7A8C9E" stroke-width="2" stroke-linecap="round" stroke-linejoin="round"/>
</svg>
