<svg width="58" height="58" viewBox="0 0 58 58" fill="none" xmlns="http://www.w3.org/2000/svg">
<path d="M39.5074 25.4025C40.7819 25.6778 49.5656 24.5471 49.4382 24.026C43.7621 2.56325 14.1855 2.6714 8.48973 24.026C8.3819 24.4783 14.2737 25.5401 16.0383 25.5991C18.6264 25.6778 20.8027 24.8322 22.6555 23.0724C24.528 21.283 27.0376 20.1818 29.6159 20.3588C31.7726 20.4964 33.6647 21.4108 35.2822 23.0527C36.4586 24.2522 37.8703 25.0584 39.5172 25.4123M1 30.751V27.3295C1 27.3295 1 27.2804 1 27.2509C1.80387 13.4274 13.4012 1.81604 27.1847 1C27.2141 1 27.2337 1 27.2631 1H30.6844C30.6844 1 30.7335 1 30.7629 1C49.6244 2.16998 62.3099 22.2858 54.8104 39.8257C43.1052 67.0106 3.41162 60.3643 1 30.8493C1 30.8198 1 30.7903 1 30.751ZM34.0078 49.5788C41.4681 47.7796 47.6932 41.5561 49.448 34.0446C49.497 33.848 49.6048 33.5137 49.448 33.494C48.6833 33.3761 43.0954 32.4617 40.9485 32.5404C37.0076 32.678 33.2921 35.9716 32.5667 39.8749C32.3118 41.2513 33.5372 49.7066 34.0078 49.5887V49.5788ZM25.4397 40.1993C24.9005 36.2961 21.0086 32.4125 16.5285 32.501C14.5776 32.5404 8.37209 33.5727 8.49954 34.0741C10.3131 41.6544 16.4794 47.8189 24.0476 49.5985C24.2241 49.6378 24.528 49.7361 24.5476 49.5788C24.6652 48.812 25.6161 41.4774 25.4397 40.1895V40.1993Z" stroke="#7A8C9E" stroke-width="2" stroke-linecap="round" stroke-linejoin="round"/>
<path d="M28.9593 32.5111C30.8921 32.5111 32.459 30.9396 32.459 29.0012C32.459 27.0627 30.8921 25.4912 28.9593 25.4912C27.0264 25.4912 25.4595 27.0627 25.4595 29.0012C25.4595 30.9396 27.0264 32.5111 28.9593 32.5111Z" stroke="#7A8C9E" stroke-width="2" stroke-linecap="round" stroke-linejoin="round"/>
</svg>
