<svg width="44" height="32" viewBox="0 0 44 32" fill="none" xmlns="http://www.w3.org/2000/svg">
<path d="M23.5399 15.2598C22.8299 15.9098 22.5699 17.2698 22.9699 18.2698C23.1899 18.8398 23.5799 19.2698 23.8299 19.8198C24.2999 20.8798 24.1099 22.3498 23.4199 23.1598" stroke="#7A8C9E" stroke-width="2" stroke-linecap="round" stroke-linejoin="round"/>
<path d="M19.9398 15.2598C19.2298 15.9098 18.9698 17.2698 19.3698 18.2698C19.5898 18.8398 19.9798 19.2698 20.2298 19.8198C20.6998 20.8798 20.5098 22.3498 19.8198 23.1598" stroke="#7A8C9E" stroke-width="2" stroke-linecap="round" stroke-linejoin="round"/>
<path d="M27.2698 15.2598C26.5598 15.9098 26.2998 17.2698 26.6998 18.2698C26.9198 18.8398 27.3098 19.2698 27.5598 19.8198C28.0298 20.8798 27.8398 22.3498 27.1498 23.1598" stroke="#7A8C9E" stroke-width="2" stroke-linecap="round" stroke-linejoin="round"/>
<path d="M42.71 24.32V11.5" stroke="#7A8C9E" stroke-width="2" stroke-linecap="round" stroke-linejoin="round"/>
<path d="M42.71 14.68H36.52V7.22998H14.75L10.38 13.3H7.22998V26.5H11.76L15.37 30.11H30.34L36.48 23.97V20.88H42.71" stroke="#7A8C9E" stroke-width="2" stroke-linecap="round" stroke-linejoin="round"/>
<path d="M25.1201 1V7.19" stroke="#7A8C9E" stroke-width="2" stroke-linecap="round" stroke-linejoin="round"/>
<path d="M34.7599 1H21.9399" stroke="#7A8C9E" stroke-width="2" stroke-linecap="round" stroke-linejoin="round"/>
<path d="M31.3198 7.23V1" stroke="#7A8C9E" stroke-width="2" stroke-linecap="round" stroke-linejoin="round"/>
<path d="M1 23.4102H7.19" stroke="#7A8C9E" stroke-width="2" stroke-linecap="round" stroke-linejoin="round"/>
<path d="M1 13.77V26.59" stroke="#7A8C9E" stroke-width="2" stroke-linecap="round" stroke-linejoin="round"/>
<path d="M7.23 17.21H1" stroke="#7A8C9E" stroke-width="2" stroke-linecap="round" stroke-linejoin="round"/>
</svg>
