<svg width="27" height="36" viewBox="0 0 27 36" fill="none" xmlns="http://www.w3.org/2000/svg">
<path d="M13.42 1C13.42 1 1 9.75 1 20.48C1 31.21 10.04 34.08 13.42 34.08" stroke="#7A8C9E" stroke-width="2" stroke-linecap="round" stroke-linejoin="round"/>
<path d="M13.4199 1C13.4199 1 25.8399 9.75 25.8399 20.48C25.8399 31.21 16.7999 34.08 13.4199 34.08" stroke="#7A8C9E" stroke-width="2" stroke-linecap="round" stroke-linejoin="round"/>
<path d="M13.47 14.71C12.76 15.36 12.5 16.72 12.9 17.72C13.12 18.29 13.51 18.72 13.76 19.27C14.23 20.33 14.04 21.8 13.35 22.61" stroke="#7A8C9E" stroke-width="2" stroke-linecap="round" stroke-linejoin="round"/>
<path d="M9.86018 14.71C9.15018 15.36 8.89018 16.72 9.29018 17.72C9.51018 18.29 9.90018 18.72 10.1502 19.27C10.6202 20.33 10.4302 21.8 9.74018 22.61" stroke="#7A8C9E" stroke-width="2" stroke-linecap="round" stroke-linejoin="round"/>
<path d="M17.2 14.71C16.49 15.36 16.23 16.72 16.63 17.72C16.85 18.29 17.24 18.72 17.49 19.27C17.96 20.33 17.77 21.8 17.08 22.61" stroke="#7A8C9E" stroke-width="2" stroke-linecap="round" stroke-linejoin="round"/>
</svg>
