<svg width="58" height="58" viewBox="0 0 58 58" fill="none" xmlns="http://www.w3.org/2000/svg">
<path d="M14.5098 39.4824C14.5098 41.7574 16.1285 44.6362 19.0948 44.6362C22.3848 44.6362 23.6798 41.7574 23.6798 39.4824" stroke="#7A8C9E" stroke-width="2" stroke-linecap="round" stroke-linejoin="round"/>
<path d="M43.8488 53.5875V17.485C43.8488 15.21 42.0638 12.3313 39.2637 12.3313C36.3237 12.3313 34.6788 15.21 34.6788 17.485V21.5625M3.5025 4.08875V40.515C3.5025 49.6062 9.16375 57 19.095 57C29.0263 57 34.6788 49.6062 34.6788 40.515V36M14.51 4.08875V39.4825C14.51 41.7575 16.1288 44.6362 19.095 44.6362C21.7812 44.6362 23.68 41.7575 23.68 39.4825V36M54.8475 53.5875V17.485C54.8475 8.39375 48.88 1 39.2637 1C30.1813 1 23.68 8.39375 23.68 17.485V21.5625M16.4262 3.94H1M41.5737 53.9375H57M21.6413 21.8075H36.7525V35.7812H21.6413V21.8075Z" stroke="#7A8C9E" stroke-width="2" stroke-linecap="round" stroke-linejoin="round"/>
<path d="M10.1875 11.5962V21.5624" stroke="#7A8C9E" stroke-width="2" stroke-linecap="round" stroke-linejoin="round"/>
<circle cx="10.1875" cy="26.6548" r="0.875" fill="#7A8C9E"/>
</svg>
