<svg width="1117" height="1117" viewBox="0 0 1117 1117" fill="none" xmlns="http://www.w3.org/2000/svg">
  <path d="M914.292 765.283C903.765 783.285 896.982 802.901 894.409 822.749C868.911 791.362 848.56 756.744 833.823 719.819C873.59 714.049 914.292 714.049 954.292 719.819C938.385 732.05 924.818 747.282 914.292 765.053M744.934 667.431C674.056 687.047 610.898 722.357 558.266 768.976C505.634 722.588 442.242 687.047 371.598 667.431C382.592 614.812 383.762 558.962 379.551 505.65C379.084 500.804 372.3 448.877 371.598 449.108C442.476 429.491 505.634 394.181 558.266 347.562C610.898 393.95 674.29 429.491 744.934 449.108C744.232 449.108 737.215 500.804 736.981 505.65C732.77 558.962 734.174 614.812 744.934 667.431ZM618.149 972.529C599.67 965.143 579.553 960.758 558.5 960.758C558.5 960.758 558.5 960.758 558.266 960.758C558.032 960.758 558.266 960.758 558.032 960.758C536.979 960.758 516.628 964.913 498.383 972.529C513.12 935.372 533.471 900.524 558.5 869.598C583.529 900.524 603.646 935.372 618.617 972.529M498.149 144.241C516.628 151.626 536.745 156.011 557.798 156.011C557.798 156.011 557.798 156.011 558.032 156.011C558.266 156.011 558.032 156.011 558.266 156.011C579.319 156.011 599.67 151.857 617.916 144.241C603.179 181.397 582.828 216.246 557.798 247.171C532.769 216.246 512.652 181.397 497.681 144.241M222.124 822.749C219.55 802.671 212.767 783.285 202.24 765.283C191.714 747.513 178.147 732.281 162.24 720.05C202.474 714.049 242.942 714.049 282.709 720.05C267.972 756.975 247.621 791.593 222.124 822.98M162.24 396.72C178.147 384.488 191.948 369.256 202.24 351.486C212.767 333.484 219.55 313.868 222.124 294.02C247.621 325.407 267.972 360.025 282.709 396.95C242.942 402.72 202.24 402.72 162.24 396.95M894.409 294.02C896.982 314.099 903.765 333.484 914.292 351.486C924.818 369.256 938.385 384.488 954.292 396.72C914.058 402.72 873.59 402.72 833.823 396.72C848.56 359.794 868.911 325.176 894.409 293.789M1098.15 691.663C1033.36 660.969 963.415 645.968 894.175 645.968C869.145 645.968 844.35 648.506 819.788 652.43C817.917 646.429 816.981 640.429 815.578 634.659C813.94 627.736 812.537 620.812 811.367 613.888C810.899 610.657 810.665 607.426 810.198 604.195C809.028 595.656 807.858 587.117 807.156 578.578C807.156 577.424 807.156 576.27 807.156 575.117C806.923 569.578 806.689 564.039 806.689 558.5C806.689 552.961 806.689 547.422 807.156 541.883C807.156 540.73 807.156 539.576 807.156 538.422C807.858 529.883 808.794 521.344 810.198 512.805C810.665 509.574 810.899 506.343 811.367 503.112C812.537 496.188 814.174 489.264 815.578 482.341C816.981 476.34 817.917 470.34 819.788 464.57C844.35 468.494 869.145 471.032 894.175 471.032C963.415 471.032 1033.36 456.031 1098.15 425.337C1115.7 417.029 1122.25 395.335 1112.42 378.718L1109.38 373.41C1101.66 360.256 1085.99 354.486 1070.78 357.948C1056.98 361.179 1042.48 360.948 1028.21 357.255C1005.52 351.255 986.573 336.946 974.877 316.868C963.181 296.79 960.14 273.48 966.222 251.094C969.965 237.247 977.216 224.554 986.807 214.399C997.333 203.322 1000.37 186.936 992.655 173.781L989.614 168.473C979.789 151.857 957.801 146.549 941.66 157.395C858.385 213.476 798.034 291.943 764.817 380.565C709.144 362.102 657.214 331.638 613.471 289.866C671.015 218.323 707.741 130.163 715.226 35.5409C716.63 16.3857 700.957 0 681.542 0H675.46C660.723 0 647.156 9.2314 643.413 23.0785C633.12 59.7733 599.202 86.5444 558.734 86.5444C558.734 86.5444 558.734 86.5444 558.5 86.5444C558.266 86.5444 558.5 86.5444 558.266 86.5444C518.032 86.5444 483.88 59.5426 473.587 23.0785C469.611 9.2314 456.043 0 441.54 0H435.458C416.043 0 400.136 16.3857 401.774 35.5409C409.259 130.163 445.985 218.323 503.529 289.866C459.786 331.638 407.856 362.333 352.183 380.565C318.966 291.943 258.381 213.476 175.34 157.395C159.199 146.549 136.977 151.857 127.386 168.473L124.345 173.781C116.626 186.936 119.433 203.322 130.193 214.399C140.018 224.554 147.035 237.247 150.778 251.094C156.86 273.48 153.819 296.79 142.123 316.868C130.427 336.946 111.48 351.255 88.7894 357.255C74.5203 360.948 60.0172 361.179 46.216 357.948C31.2451 354.486 15.3386 360.025 7.61924 373.41L4.57828 378.718C-5.24634 395.335 1.30341 417.029 18.8474 425.337C83.6431 456.031 153.585 471.032 222.825 471.032C247.855 471.032 272.65 468.494 297.212 464.57C299.083 470.571 300.019 476.34 301.422 482.341C302.826 489.264 304.463 496.188 305.633 503.112C306.101 506.343 306.335 509.574 306.802 512.805C307.972 521.344 309.142 529.883 309.843 538.422C309.843 539.576 309.843 540.73 309.843 541.883C310.077 547.422 310.311 552.961 310.311 558.5C310.311 564.039 310.311 569.578 309.843 575.117C309.843 576.27 309.843 577.424 309.843 578.578C309.142 587.117 308.206 595.656 306.802 604.195C306.335 607.426 306.101 610.657 305.633 613.888C304.463 620.812 302.826 627.736 301.422 634.659C300.019 640.659 299.083 646.66 297.212 652.43C272.65 648.506 247.855 645.968 222.825 645.968C153.585 645.968 83.6431 660.969 18.8474 691.663C1.30341 699.971 -5.24634 721.665 4.57828 738.282L7.61924 743.59C15.3386 756.744 31.0112 762.514 46.216 759.052C60.0172 755.821 74.5203 756.052 88.7894 759.745C111.48 765.745 130.427 780.054 142.123 800.132C153.819 820.21 156.86 843.52 150.778 865.906C147.035 879.984 139.784 892.446 130.193 902.601C119.667 913.678 116.626 929.833 124.345 943.219L127.386 948.527C137.211 965.143 159.433 970.451 175.34 959.605C258.615 903.524 318.966 825.057 352.183 736.435C407.856 754.898 459.786 785.362 503.529 827.134C445.985 898.677 409.259 986.837 401.774 1081.46C400.37 1100.61 416.043 1117 435.458 1117H441.54C456.277 1117 469.844 1107.77 473.587 1093.92C483.88 1057.23 517.798 1030.46 558.266 1030.46C558.266 1030.46 558.266 1030.46 558.5 1030.46C558.734 1030.46 558.5 1030.46 558.734 1030.46C598.968 1030.46 633.12 1057.46 643.413 1093.92C647.389 1107.77 660.957 1117 675.46 1117H681.542C700.957 1117 716.864 1100.61 715.226 1081.46C707.741 986.837 671.015 898.677 613.471 827.134C657.214 785.362 709.144 754.667 764.817 736.435C798.034 825.057 858.619 903.524 941.66 959.605C957.801 970.451 980.023 965.143 989.614 948.527L992.655 943.219C1000.37 930.064 997.567 913.678 986.807 902.601C976.982 892.215 969.965 879.753 966.222 865.906C960.14 843.52 963.181 820.21 974.877 800.132C986.573 780.054 1005.52 765.745 1028.21 759.745C1042.48 756.052 1056.98 755.821 1070.78 759.052C1085.75 762.514 1101.66 756.975 1109.38 743.59L1112.42 738.282C1122.25 721.665 1115.7 699.971 1098.15 691.663Z" fill="#E5E0E6" fill-opacity="0.25" />
  <path d="M914.292 765.283C903.765 783.285 896.982 802.901 894.409 822.749C868.911 791.362 848.56 756.744 833.823 719.819C873.59 714.049 914.292 714.049 954.292 719.819C938.385 732.05 924.818 747.282 914.292 765.053M744.934 667.431C674.056 687.047 610.898 722.357 558.266 768.976C505.634 722.588 442.242 687.047 371.598 667.431C382.592 614.812 383.762 558.962 379.551 505.65C379.084 500.804 372.3 448.877 371.598 449.108C442.476 429.491 505.634 394.181 558.266 347.562C610.898 393.95 674.29 429.491 744.934 449.108C744.232 449.108 737.215 500.804 736.981 505.65C732.77 558.962 734.174 614.812 744.934 667.431ZM618.149 972.529C599.67 965.143 579.553 960.758 558.5 960.758C558.5 960.758 558.5 960.758 558.266 960.758C558.032 960.758 558.266 960.758 558.032 960.758C536.979 960.758 516.628 964.913 498.383 972.529C513.12 935.372 533.471 900.524 558.5 869.598C583.529 900.524 603.646 935.372 618.617 972.529M498.149 144.241C516.628 151.626 536.745 156.011 557.798 156.011C557.798 156.011 557.798 156.011 558.032 156.011C558.266 156.011 558.032 156.011 558.266 156.011C579.319 156.011 599.67 151.857 617.916 144.241C603.179 181.397 582.828 216.246 557.798 247.171C532.769 216.246 512.652 181.397 497.681 144.241M222.124 822.749C219.55 802.671 212.767 783.285 202.24 765.283C191.714 747.513 178.147 732.281 162.24 720.05C202.474 714.049 242.942 714.049 282.709 720.05C267.972 756.975 247.621 791.593 222.124 822.98M162.24 396.72C178.147 384.488 191.948 369.256 202.24 351.486C212.767 333.484 219.55 313.868 222.124 294.02C247.621 325.407 267.972 360.025 282.709 396.95C242.942 402.72 202.24 402.72 162.24 396.95M894.409 294.02C896.982 314.099 903.765 333.484 914.292 351.486C924.818 369.256 938.385 384.488 954.292 396.72C914.058 402.72 873.59 402.72 833.823 396.72C848.56 359.794 868.911 325.176 894.409 293.789M1098.15 691.663C1033.36 660.969 963.415 645.968 894.175 645.968C869.145 645.968 844.35 648.506 819.788 652.43C817.917 646.429 816.981 640.429 815.578 634.659C813.94 627.736 812.537 620.812 811.367 613.888C810.899 610.657 810.665 607.426 810.198 604.195C809.028 595.656 807.858 587.117 807.156 578.578C807.156 577.424 807.156 576.27 807.156 575.117C806.923 569.578 806.689 564.039 806.689 558.5C806.689 552.961 806.689 547.422 807.156 541.883C807.156 540.73 807.156 539.576 807.156 538.422C807.858 529.883 808.794 521.344 810.198 512.805C810.665 509.574 810.899 506.343 811.367 503.112C812.537 496.188 814.174 489.264 815.578 482.341C816.981 476.34 817.917 470.34 819.788 464.57C844.35 468.494 869.145 471.032 894.175 471.032C963.415 471.032 1033.36 456.031 1098.15 425.337C1115.7 417.029 1122.25 395.335 1112.42 378.718L1109.38 373.41C1101.66 360.256 1085.99 354.486 1070.78 357.948C1056.98 361.179 1042.48 360.948 1028.21 357.255C1005.52 351.255 986.573 336.946 974.877 316.868C963.181 296.79 960.14 273.48 966.222 251.094C969.965 237.247 977.216 224.554 986.807 214.399C997.333 203.322 1000.37 186.936 992.655 173.781L989.614 168.473C979.789 151.857 957.801 146.549 941.66 157.395C858.385 213.476 798.034 291.943 764.817 380.565C709.144 362.102 657.214 331.638 613.471 289.866C671.015 218.323 707.741 130.163 715.226 35.5409C716.63 16.3857 700.957 0 681.542 0H675.46C660.723 0 647.156 9.2314 643.413 23.0785C633.12 59.7733 599.202 86.5444 558.734 86.5444C558.734 86.5444 558.734 86.5444 558.5 86.5444C558.266 86.5444 558.5 86.5444 558.266 86.5444C518.032 86.5444 483.88 59.5426 473.587 23.0785C469.611 9.2314 456.043 0 441.54 0H435.458C416.043 0 400.136 16.3857 401.774 35.5409C409.259 130.163 445.985 218.323 503.529 289.866C459.786 331.638 407.856 362.333 352.183 380.565C318.966 291.943 258.381 213.476 175.34 157.395C159.199 146.549 136.977 151.857 127.386 168.473L124.345 173.781C116.626 186.936 119.433 203.322 130.193 214.399C140.018 224.554 147.035 237.247 150.778 251.094C156.86 273.48 153.819 296.79 142.123 316.868C130.427 336.946 111.48 351.255 88.7894 357.255C74.5203 360.948 60.0172 361.179 46.216 357.948C31.2451 354.486 15.3386 360.025 7.61924 373.41L4.57828 378.718C-5.24634 395.335 1.30341 417.029 18.8474 425.337C83.6431 456.031 153.585 471.032 222.825 471.032C247.855 471.032 272.65 468.494 297.212 464.57C299.083 470.571 300.019 476.34 301.422 482.341C302.826 489.264 304.463 496.188 305.633 503.112C306.101 506.343 306.335 509.574 306.802 512.805C307.972 521.344 309.142 529.883 309.843 538.422C309.843 539.576 309.843 540.73 309.843 541.883C310.077 547.422 310.311 552.961 310.311 558.5C310.311 564.039 310.311 569.578 309.843 575.117C309.843 576.27 309.843 577.424 309.843 578.578C309.142 587.117 308.206 595.656 306.802 604.195C306.335 607.426 306.101 610.657 305.633 613.888C304.463 620.812 302.826 627.736 301.422 634.659C300.019 640.659 299.083 646.66 297.212 652.43C272.65 648.506 247.855 645.968 222.825 645.968C153.585 645.968 83.6431 660.969 18.8474 691.663C1.30341 699.971 -5.24634 721.665 4.57828 738.282L7.61924 743.59C15.3386 756.744 31.0112 762.514 46.216 759.052C60.0172 755.821 74.5203 756.052 88.7894 759.745C111.48 765.745 130.427 780.054 142.123 800.132C153.819 820.21 156.86 843.52 150.778 865.906C147.035 879.984 139.784 892.446 130.193 902.601C119.667 913.678 116.626 929.833 124.345 943.219L127.386 948.527C137.211 965.143 159.433 970.451 175.34 959.605C258.615 903.524 318.966 825.057 352.183 736.435C407.856 754.898 459.786 785.362 503.529 827.134C445.985 898.677 409.259 986.837 401.774 1081.46C400.37 1100.61 416.043 1117 435.458 1117H441.54C456.277 1117 469.844 1107.77 473.587 1093.92C483.88 1057.23 517.798 1030.46 558.266 1030.46C558.266 1030.46 558.266 1030.46 558.5 1030.46C558.734 1030.46 558.5 1030.46 558.734 1030.46C598.968 1030.46 633.12 1057.46 643.413 1093.92C647.389 1107.77 660.957 1117 675.46 1117H681.542C700.957 1117 716.864 1100.61 715.226 1081.46C707.741 986.837 671.015 898.677 613.471 827.134C657.214 785.362 709.144 754.667 764.817 736.435C798.034 825.057 858.619 903.524 941.66 959.605C957.801 970.451 980.023 965.143 989.614 948.527L992.655 943.219C1000.37 930.064 997.567 913.678 986.807 902.601C976.982 892.215 969.965 879.753 966.222 865.906C960.14 843.52 963.181 820.21 974.877 800.132C986.573 780.054 1005.52 765.745 1028.21 759.745C1042.48 756.052 1056.98 755.821 1070.78 759.052C1085.75 762.514 1101.66 756.975 1109.38 743.59L1112.42 738.282C1122.25 721.665 1115.7 699.971 1098.15 691.663Z" fill="#E5E0E6" fill-opacity="0.5" />
  <path d="M914.292 765.283C903.765 783.285 896.982 802.901 894.409 822.749C868.911 791.362 848.56 756.744 833.823 719.819C873.59 714.049 914.292 714.049 954.292 719.819C938.385 732.05 924.818 747.282 914.292 765.053M744.934 667.431C674.056 687.047 610.898 722.357 558.266 768.976C505.634 722.588 442.242 687.047 371.598 667.431C382.592 614.812 383.762 558.962 379.551 505.65C379.084 500.804 372.3 448.877 371.598 449.108C442.476 429.491 505.634 394.181 558.266 347.562C610.898 393.95 674.29 429.491 744.934 449.108C744.232 449.108 737.215 500.804 736.981 505.65C732.77 558.962 734.174 614.812 744.934 667.431ZM618.149 972.529C599.67 965.143 579.553 960.758 558.5 960.758C558.5 960.758 558.5 960.758 558.266 960.758C558.032 960.758 558.266 960.758 558.032 960.758C536.979 960.758 516.628 964.913 498.383 972.529C513.12 935.372 533.471 900.524 558.5 869.598C583.529 900.524 603.646 935.372 618.617 972.529M498.149 144.241C516.628 151.626 536.745 156.011 557.798 156.011C557.798 156.011 557.798 156.011 558.032 156.011C558.266 156.011 558.032 156.011 558.266 156.011C579.319 156.011 599.67 151.857 617.916 144.241C603.179 181.397 582.828 216.246 557.798 247.171C532.769 216.246 512.652 181.397 497.681 144.241M222.124 822.749C219.55 802.671 212.767 783.285 202.24 765.283C191.714 747.513 178.147 732.281 162.24 720.05C202.474 714.049 242.942 714.049 282.709 720.05C267.972 756.975 247.621 791.593 222.124 822.98M162.24 396.72C178.147 384.488 191.948 369.256 202.24 351.486C212.767 333.484 219.55 313.868 222.124 294.02C247.621 325.407 267.972 360.025 282.709 396.95C242.942 402.72 202.24 402.72 162.24 396.95M894.409 294.02C896.982 314.099 903.765 333.484 914.292 351.486C924.818 369.256 938.385 384.488 954.292 396.72C914.058 402.72 873.59 402.72 833.823 396.72C848.56 359.794 868.911 325.176 894.409 293.789M1098.15 691.663C1033.36 660.969 963.415 645.968 894.175 645.968C869.145 645.968 844.35 648.506 819.788 652.43C817.917 646.429 816.981 640.429 815.578 634.659C813.94 627.736 812.537 620.812 811.367 613.888C810.899 610.657 810.665 607.426 810.198 604.195C809.028 595.656 807.858 587.117 807.156 578.578C807.156 577.424 807.156 576.27 807.156 575.117C806.923 569.578 806.689 564.039 806.689 558.5C806.689 552.961 806.689 547.422 807.156 541.883C807.156 540.73 807.156 539.576 807.156 538.422C807.858 529.883 808.794 521.344 810.198 512.805C810.665 509.574 810.899 506.343 811.367 503.112C812.537 496.188 814.174 489.264 815.578 482.341C816.981 476.34 817.917 470.34 819.788 464.57C844.35 468.494 869.145 471.032 894.175 471.032C963.415 471.032 1033.36 456.031 1098.15 425.337C1115.7 417.029 1122.25 395.335 1112.42 378.718L1109.38 373.41C1101.66 360.256 1085.99 354.486 1070.78 357.948C1056.98 361.179 1042.48 360.948 1028.21 357.255C1005.52 351.255 986.573 336.946 974.877 316.868C963.181 296.79 960.14 273.48 966.222 251.094C969.965 237.247 977.216 224.554 986.807 214.399C997.333 203.322 1000.37 186.936 992.655 173.781L989.614 168.473C979.789 151.857 957.801 146.549 941.66 157.395C858.385 213.476 798.034 291.943 764.817 380.565C709.144 362.102 657.214 331.638 613.471 289.866C671.015 218.323 707.741 130.163 715.226 35.5409C716.63 16.3857 700.957 0 681.542 0H675.46C660.723 0 647.156 9.2314 643.413 23.0785C633.12 59.7733 599.202 86.5444 558.734 86.5444C558.734 86.5444 558.734 86.5444 558.5 86.5444C558.266 86.5444 558.5 86.5444 558.266 86.5444C518.032 86.5444 483.88 59.5426 473.587 23.0785C469.611 9.2314 456.043 0 441.54 0H435.458C416.043 0 400.136 16.3857 401.774 35.5409C409.259 130.163 445.985 218.323 503.529 289.866C459.786 331.638 407.856 362.333 352.183 380.565C318.966 291.943 258.381 213.476 175.34 157.395C159.199 146.549 136.977 151.857 127.386 168.473L124.345 173.781C116.626 186.936 119.433 203.322 130.193 214.399C140.018 224.554 147.035 237.247 150.778 251.094C156.86 273.48 153.819 296.79 142.123 316.868C130.427 336.946 111.48 351.255 88.7894 357.255C74.5203 360.948 60.0172 361.179 46.216 357.948C31.2451 354.486 15.3386 360.025 7.61924 373.41L4.57828 378.718C-5.24634 395.335 1.30341 417.029 18.8474 425.337C83.6431 456.031 153.585 471.032 222.825 471.032C247.855 471.032 272.65 468.494 297.212 464.57C299.083 470.571 300.019 476.34 301.422 482.341C302.826 489.264 304.463 496.188 305.633 503.112C306.101 506.343 306.335 509.574 306.802 512.805C307.972 521.344 309.142 529.883 309.843 538.422C309.843 539.576 309.843 540.73 309.843 541.883C310.077 547.422 310.311 552.961 310.311 558.5C310.311 564.039 310.311 569.578 309.843 575.117C309.843 576.27 309.843 577.424 309.843 578.578C309.142 587.117 308.206 595.656 306.802 604.195C306.335 607.426 306.101 610.657 305.633 613.888C304.463 620.812 302.826 627.736 301.422 634.659C300.019 640.659 299.083 646.66 297.212 652.43C272.65 648.506 247.855 645.968 222.825 645.968C153.585 645.968 83.6431 660.969 18.8474 691.663C1.30341 699.971 -5.24634 721.665 4.57828 738.282L7.61924 743.59C15.3386 756.744 31.0112 762.514 46.216 759.052C60.0172 755.821 74.5203 756.052 88.7894 759.745C111.48 765.745 130.427 780.054 142.123 800.132C153.819 820.21 156.86 843.52 150.778 865.906C147.035 879.984 139.784 892.446 130.193 902.601C119.667 913.678 116.626 929.833 124.345 943.219L127.386 948.527C137.211 965.143 159.433 970.451 175.34 959.605C258.615 903.524 318.966 825.057 352.183 736.435C407.856 754.898 459.786 785.362 503.529 827.134C445.985 898.677 409.259 986.837 401.774 1081.46C400.37 1100.61 416.043 1117 435.458 1117H441.54C456.277 1117 469.844 1107.77 473.587 1093.92C483.88 1057.23 517.798 1030.46 558.266 1030.46C558.266 1030.46 558.266 1030.46 558.5 1030.46C558.734 1030.46 558.5 1030.46 558.734 1030.46C598.968 1030.46 633.12 1057.46 643.413 1093.92C647.389 1107.77 660.957 1117 675.46 1117H681.542C700.957 1117 716.864 1100.61 715.226 1081.46C707.741 986.837 671.015 898.677 613.471 827.134C657.214 785.362 709.144 754.667 764.817 736.435C798.034 825.057 858.619 903.524 941.66 959.605C957.801 970.451 980.023 965.143 989.614 948.527L992.655 943.219C1000.37 930.064 997.567 913.678 986.807 902.601C976.982 892.215 969.965 879.753 966.222 865.906C960.14 843.52 963.181 820.21 974.877 800.132C986.573 780.054 1005.52 765.745 1028.21 759.745C1042.48 756.052 1056.98 755.821 1070.78 759.052C1085.75 762.514 1101.66 756.975 1109.38 743.59L1112.42 738.282C1122.25 721.665 1115.7 699.971 1098.15 691.663Z" fill="#E5E0E6" fill-opacity="0.75" />
  <path d="M914.292 765.283C903.765 783.285 896.982 802.901 894.409 822.749C868.911 791.362 848.56 756.744 833.823 719.819C873.59 714.049 914.292 714.049 954.292 719.819C938.385 732.05 924.818 747.282 914.292 765.053M744.934 667.431C674.056 687.047 610.898 722.357 558.266 768.976C505.634 722.588 442.242 687.047 371.598 667.431C382.592 614.812 383.762 558.962 379.551 505.65C379.084 500.804 372.3 448.877 371.598 449.108C442.476 429.491 505.634 394.181 558.266 347.562C610.898 393.95 674.29 429.491 744.934 449.108C744.232 449.108 737.215 500.804 736.981 505.65C732.77 558.962 734.174 614.812 744.934 667.431ZM618.149 972.529C599.67 965.143 579.553 960.758 558.5 960.758C558.5 960.758 558.5 960.758 558.266 960.758C558.032 960.758 558.266 960.758 558.032 960.758C536.979 960.758 516.628 964.913 498.383 972.529C513.12 935.372 533.471 900.524 558.5 869.598C583.529 900.524 603.646 935.372 618.617 972.529M498.149 144.241C516.628 151.626 536.745 156.011 557.798 156.011C557.798 156.011 557.798 156.011 558.032 156.011C558.266 156.011 558.032 156.011 558.266 156.011C579.319 156.011 599.67 151.857 617.916 144.241C603.179 181.397 582.828 216.246 557.798 247.171C532.769 216.246 512.652 181.397 497.681 144.241M222.124 822.749C219.55 802.671 212.767 783.285 202.24 765.283C191.714 747.513 178.147 732.281 162.24 720.05C202.474 714.049 242.942 714.049 282.709 720.05C267.972 756.975 247.621 791.593 222.124 822.98M162.24 396.72C178.147 384.488 191.948 369.256 202.24 351.486C212.767 333.484 219.55 313.868 222.124 294.02C247.621 325.407 267.972 360.025 282.709 396.95C242.942 402.72 202.24 402.72 162.24 396.95M894.409 294.02C896.982 314.099 903.765 333.484 914.292 351.486C924.818 369.256 938.385 384.488 954.292 396.72C914.058 402.72 873.59 402.72 833.823 396.72C848.56 359.794 868.911 325.176 894.409 293.789M1098.15 691.663C1033.36 660.969 963.415 645.968 894.175 645.968C869.145 645.968 844.35 648.506 819.788 652.43C817.917 646.429 816.981 640.429 815.578 634.659C813.94 627.736 812.537 620.812 811.367 613.888C810.899 610.657 810.665 607.426 810.198 604.195C809.028 595.656 807.858 587.117 807.156 578.578C807.156 577.424 807.156 576.27 807.156 575.117C806.923 569.578 806.689 564.039 806.689 558.5C806.689 552.961 806.689 547.422 807.156 541.883C807.156 540.73 807.156 539.576 807.156 538.422C807.858 529.883 808.794 521.344 810.198 512.805C810.665 509.574 810.899 506.343 811.367 503.112C812.537 496.188 814.174 489.264 815.578 482.341C816.981 476.34 817.917 470.34 819.788 464.57C844.35 468.494 869.145 471.032 894.175 471.032C963.415 471.032 1033.36 456.031 1098.15 425.337C1115.7 417.029 1122.25 395.335 1112.42 378.718L1109.38 373.41C1101.66 360.256 1085.99 354.486 1070.78 357.948C1056.98 361.179 1042.48 360.948 1028.21 357.255C1005.52 351.255 986.573 336.946 974.877 316.868C963.181 296.79 960.14 273.48 966.222 251.094C969.965 237.247 977.216 224.554 986.807 214.399C997.333 203.322 1000.37 186.936 992.655 173.781L989.614 168.473C979.789 151.857 957.801 146.549 941.66 157.395C858.385 213.476 798.034 291.943 764.817 380.565C709.144 362.102 657.214 331.638 613.471 289.866C671.015 218.323 707.741 130.163 715.226 35.5409C716.63 16.3857 700.957 0 681.542 0H675.46C660.723 0 647.156 9.2314 643.413 23.0785C633.12 59.7733 599.202 86.5444 558.734 86.5444C558.734 86.5444 558.734 86.5444 558.5 86.5444C558.266 86.5444 558.5 86.5444 558.266 86.5444C518.032 86.5444 483.88 59.5426 473.587 23.0785C469.611 9.2314 456.043 0 441.54 0H435.458C416.043 0 400.136 16.3857 401.774 35.5409C409.259 130.163 445.985 218.323 503.529 289.866C459.786 331.638 407.856 362.333 352.183 380.565C318.966 291.943 258.381 213.476 175.34 157.395C159.199 146.549 136.977 151.857 127.386 168.473L124.345 173.781C116.626 186.936 119.433 203.322 130.193 214.399C140.018 224.554 147.035 237.247 150.778 251.094C156.86 273.48 153.819 296.79 142.123 316.868C130.427 336.946 111.48 351.255 88.7894 357.255C74.5203 360.948 60.0172 361.179 46.216 357.948C31.2451 354.486 15.3386 360.025 7.61924 373.41L4.57828 378.718C-5.24634 395.335 1.30341 417.029 18.8474 425.337C83.6431 456.031 153.585 471.032 222.825 471.032C247.855 471.032 272.65 468.494 297.212 464.57C299.083 470.571 300.019 476.34 301.422 482.341C302.826 489.264 304.463 496.188 305.633 503.112C306.101 506.343 306.335 509.574 306.802 512.805C307.972 521.344 309.142 529.883 309.843 538.422C309.843 539.576 309.843 540.73 309.843 541.883C310.077 547.422 310.311 552.961 310.311 558.5C310.311 564.039 310.311 569.578 309.843 575.117C309.843 576.27 309.843 577.424 309.843 578.578C309.142 587.117 308.206 595.656 306.802 604.195C306.335 607.426 306.101 610.657 305.633 613.888C304.463 620.812 302.826 627.736 301.422 634.659C300.019 640.659 299.083 646.66 297.212 652.43C272.65 648.506 247.855 645.968 222.825 645.968C153.585 645.968 83.6431 660.969 18.8474 691.663C1.30341 699.971 -5.24634 721.665 4.57828 738.282L7.61924 743.59C15.3386 756.744 31.0112 762.514 46.216 759.052C60.0172 755.821 74.5203 756.052 88.7894 759.745C111.48 765.745 130.427 780.054 142.123 800.132C153.819 820.21 156.86 843.52 150.778 865.906C147.035 879.984 139.784 892.446 130.193 902.601C119.667 913.678 116.626 929.833 124.345 943.219L127.386 948.527C137.211 965.143 159.433 970.451 175.34 959.605C258.615 903.524 318.966 825.057 352.183 736.435C407.856 754.898 459.786 785.362 503.529 827.134C445.985 898.677 409.259 986.837 401.774 1081.46C400.37 1100.61 416.043 1117 435.458 1117H441.54C456.277 1117 469.844 1107.77 473.587 1093.92C483.88 1057.23 517.798 1030.46 558.266 1030.46C558.266 1030.46 558.266 1030.46 558.5 1030.46C558.734 1030.46 558.5 1030.46 558.734 1030.46C598.968 1030.46 633.12 1057.46 643.413 1093.92C647.389 1107.77 660.957 1117 675.46 1117H681.542C700.957 1117 716.864 1100.61 715.226 1081.46C707.741 986.837 671.015 898.677 613.471 827.134C657.214 785.362 709.144 754.667 764.817 736.435C798.034 825.057 858.619 903.524 941.66 959.605C957.801 970.451 980.023 965.143 989.614 948.527L992.655 943.219C1000.37 930.064 997.567 913.678 986.807 902.601C976.982 892.215 969.965 879.753 966.222 865.906C960.14 843.52 963.181 820.21 974.877 800.132C986.573 780.054 1005.52 765.745 1028.21 759.745C1042.48 756.052 1056.98 755.821 1070.78 759.052C1085.75 762.514 1101.66 756.975 1109.38 743.59L1112.42 738.282C1122.25 721.665 1115.7 699.971 1098.15 691.663Z" fill="#E5E0E6" />
</svg>